<?xml version="1.0" standalone="no"?>
<!DOCTYPE svg PUBLIC "-//W3C//DTD SVG 20010904//EN" "http://www.w3.org/TR/2001/REC-SVG-20010904/DTD/svg10.dtd">
<svg version="1.0" xmlns="http://www.w3.org/2000/svg" width="240.000000pt" height="240.000000pt"
    viewBox="0 0 240.000000 240.000000" preserveAspectRatio="xMidYMid meet">

    <g transform="translate(0.000000,240.000000) scale(0.100000,-0.100000)" fill="#000000" stroke="none">
        <path d="M555 2094 c-42 -22 -341 -320 -371 -370 -81 -136 -86 -301 -14 -445
15 -30 142 -164 384 -405 302 -302 376 -371 454 -422 109 -71 207 -114 341
-150 91 -24 112 -26 401 -29 l305 -4 45 24 c101 53 135 146 135 367 -1 148
-13 196 -63 252 -43 48 -85 69 -202 98 -103 26 -150 55 -173 106 -9 22 -46
165 -82 319 -73 315 -85 341 -170 384 -77 40 -140 36 -244 -17 -46 -23 -117
-65 -157 -92 -80 -54 -128 -65 -156 -32 -8 9 -36 80 -62 157 -42 125 -52 145
-94 189 -26 26 -65 57 -87 67 -50 23 -148 24 -190 3z m159 -167 c22 -24 42
-66 70 -153 48 -149 75 -197 129 -228 102 -60 184 -53 304 26 43 28 113 68
157 89 82 40 104 40 125 1 5 -9 39 -144 75 -300 36 -156 73 -297 82 -313 23
-45 82 -107 128 -134 23 -13 82 -34 131 -46 111 -27 143 -43 155 -75 22 -56
31 -54 -247 -54 -301 0 -361 8 -463 57 -69 33 -99 60 -355 313 -154 153 -295
285 -314 294 -51 27 -123 22 -259 -17 l-123 -35 -16 32 c-9 17 -18 61 -21 98
-8 109 24 161 201 336 126 124 149 142 177 142 24 0 41 -9 64 -33z m180 -925
c275 -273 324 -315 420 -357 105 -46 182 -55 487 -55 l282 0 -6 -63 c-6 -50
-12 -66 -33 -85 l-27 -24 -276 5 c-308 4 -372 14 -516 81 -133 62 -185 105
-498 415 l-308 306 68 22 c130 41 102 58 407 -245z" />
    </g>
</svg>