<?xml version="1.0" standalone="no"?>
<!DOCTYPE svg PUBLIC "-//W3C//DTD SVG 20010904//EN" "http://www.w3.org/TR/2001/REC-SVG-20010904/DTD/svg10.dtd">
<svg version="1.0" xmlns="http://www.w3.org/2000/svg" width="240.000000pt" height="240.000000pt"
    viewBox="0 0 240.000000 240.000000" preserveAspectRatio="xMidYMid meet">

    <g transform="translate(0.000000,240.000000) scale(0.100000,-0.100000)" fill="#000000" stroke="none">
        <path d="M555 2091 c-58 -27 -343 -312 -379 -380 -37 -70 -56 -142 -56 -219 0
-67 17 -152 30 -152 5 0 82 25 172 56 99 34 181 57 208 57 96 1 104 -5 440
-338 174 -173 335 -324 361 -339 25 -14 72 -36 105 -48 56 -21 76 -22 433 -26
l374 -3 -7 47 c-11 85 -27 125 -63 165 -46 51 -85 70 -198 98 -106 26 -148 52
-175 106 -10 22 -49 166 -85 320 -73 314 -85 341 -171 385 -99 51 -202 24
-391 -104 -135 -91 -162 -79 -218 94 -21 63 -46 131 -56 150 -24 47 -96 116
-141 135 -51 20 -134 19 -183 -4z" />
        <path d="M370 1260 c-74 -26 -135 -51 -137 -57 -2 -5 151 -162 339 -349 281
-279 360 -352 436 -402 108 -70 206 -114 341 -150 90 -24 113 -26 387 -30 336
-4 355 -2 419 63 44 44 59 79 71 168 l6 45 -373 5 c-400 4 -415 6 -533 60
-101 46 -148 87 -457 393 -267 266 -309 304 -335 303 -16 -1 -90 -23 -164 -49z" />
    </g>
</svg>